# xmcd
#
# Track frame offsets:
#	150
#	20275
#	41332
#	67050
#	85692
#	103538
#	119234
#	141377
#	166524
#	188610
#	207313
#	225401
#	249324
#	265843
#
# Disc length: 3753 seconds
#
# Revision: 0
# Processed by: cddbd v1.5.1PL0 Copyright (c) Steve Scherf et al.
# Submitted via: dBpowerAMP V4.0
#
DISCID=b50ea70e
DTITLE=Diyar - Gulê Neche
DYEAR=2004
DGENRE=Country
TTITLE0=Song Of Fire
TTITLE1=Trust Me
TTITLE2=Don't Go
TTITLE3=Help
TTITLE4=My EveryThing
TTITLE5=I Go I Go
TTITLE6=Hennê
TTITLE7=Pease
TTITLE8=Oi Oi
TTITLE9=You Wanna Hurt Me
TTITLE10=You Are Crazy
TTITLE11=My Darling
TTITLE12=My Passion
TTITLE13=Surprise
EXTD=Gulê Neche
EXTT0=
EXTT1=
EXTT2=
EXTT3=
EXTT4=
EXTT5=
EXTT6=
EXTT7=
EXTT8=
EXTT9=
EXTT10=
EXTT11=
EXTT12=
EXTT13=
PLAYORDER=
